<?xml version="1.0" standalone="no"?>
<!DOCTYPE svg PUBLIC "-//W3C//DTD SVG 20010904//EN"
 "http://www.w3.org/TR/2001/REC-SVG-20010904/DTD/svg10.dtd">
<svg version="1.0" xmlns="http://www.w3.org/2000/svg"
 width="5915.000000pt" height="3215.000000pt" viewBox="0 0 5915.000000 3215.000000"
 preserveAspectRatio="xMidYMid meet">

<g transform="translate(0.000000,3215.000000) scale(0.100000,-0.100000)"
fill="#000000" stroke="none">
<path d="M28503 9138 c-244 -94 -441 -173 -439 -175 4 -4 858 322 886 338 41
24 -41 -6 -447 -163z"/>
<path d="M27957 8928 c-42 -17 -76 -33 -74 -35 5 -4 167 57 167 63 0 7 -14 3
-93 -28z"/>
<path d="M4950 8200 l0 -260 2445 0 2445 0 0 260 0 260 -2445 0 -2445 0 0
-260z m4880 0 l0 -250 -2435 0 -2435 0 0 250 0 250 2435 0 2435 0 0 -250z"/>
<path d="M50690 8453 c0 -5 781 -7 1735 -5 l1735 2 0 -250 0 -250 -1152 -3
-1153 -2 1158 -3 1157 -2 0 260 0 260 -1740 0 c-957 0 -1740 -3 -1740 -7z"/>
<path d="M37460 7840 c0 -6 -376 -11 -1092 -13 l-1093 -2 1098 -3 c969 -2
1097 0 1097 13 0 8 -2 15 -5 15 -3 0 -5 -4 -5 -10z"/>
<path d="M25140 7810 c-18 -12 -2 -12 25 0 13 6 15 9 5 9 -8 0 -22 -4 -30 -9z"/>
<path d="M24331 7484 c-398 -161 -726 -296 -729 -299 -3 -3 0 -11 6 -17 9 -9
12 -9 12 3 0 10 144 73 463 201 980 396 1010 408 982 407 -5 0 -336 -133 -734
-295z"/>
<path d="M35591 6468 c-1 -21 4 -28 17 -28 11 0 13 3 6 8 -7 4 -14 16 -17 27
-4 15 -5 14 -6 -7z"/>
</g>
</svg>
