<svg id="svg" version="1.1" xmlns="http://www.w3.org/2000/svg" xmlns:xlink="http://www.w3.org/1999/xlink" width="400" height="217.41335587489434" viewBox="0, 0, 400,217.41335587489434"><g id="svgg"><path id="path0" d="M202.701 29.841 C 202.490 29.926,202.239 30.221,202.143 30.498 C 202.046 30.774,201.895 31.000,201.807 31.000 C 201.719 31.000,201.693 30.925,201.750 30.833 C 201.807 30.742,201.774 30.667,201.677 30.667 C 201.579 30.667,201.500 30.850,201.500 31.073 C 201.500 31.297,201.425 31.527,201.333 31.583 C 201.237 31.643,201.167 32.530,201.167 33.677 C 201.167 34.892,201.102 35.667,201.000 35.667 C 200.899 35.667,200.833 36.361,200.833 37.417 C 200.833 38.472,200.899 39.167,201.000 39.167 C 201.092 39.167,201.167 39.392,201.167 39.667 C 201.167 39.942,201.242 40.167,201.333 40.167 C 201.658 40.167,201.518 41.319,201.167 41.539 C 200.983 41.653,200.833 41.879,200.833 42.040 C 200.833 42.222,200.707 42.333,200.500 42.333 C 200.278 42.333,200.167 42.444,200.167 42.667 C 200.167 42.850,200.092 43.000,200.000 43.000 C 199.900 43.000,199.833 43.671,199.833 44.680 L 199.833 46.360 199.096 47.096 C 198.691 47.502,198.241 47.833,198.096 47.833 C 197.917 47.833,197.833 47.987,197.833 48.316 C 197.833 48.598,197.726 48.839,197.575 48.897 C 197.376 48.973,197.328 49.202,197.366 49.873 C 197.420 50.803,197.012 51.500,196.416 51.500 C 196.269 51.500,196.072 51.721,195.978 51.990 C 195.872 52.297,195.672 52.500,195.445 52.532 C 195.204 52.566,195.065 52.722,195.028 53.000 C 194.997 53.229,194.903 53.488,194.819 53.575 C 194.613 53.789,194.625 55.288,194.833 55.417 C 194.925 55.473,195.000 55.699,195.000 55.918 C 195.000 56.137,195.094 56.377,195.208 56.450 C 195.323 56.523,195.417 56.771,195.417 57.000 C 195.417 57.348,195.506 57.425,195.958 57.469 L 196.500 57.521 196.500 61.289 C 196.500 64.561,196.536 65.097,196.776 65.362 C 197.035 65.648,197.030 65.667,196.702 65.667 C 196.510 65.667,196.307 65.742,196.250 65.833 C 196.193 65.925,196.019 66.000,195.864 66.000 C 195.708 66.000,195.487 66.150,195.372 66.333 C 195.258 66.517,195.014 66.667,194.832 66.667 C 194.649 66.667,194.500 66.734,194.500 66.815 C 194.500 66.897,194.318 67.010,194.095 67.066 C 193.846 67.128,193.669 67.309,193.637 67.535 C 193.603 67.768,193.430 67.939,193.167 68.000 C 192.845 68.074,192.738 68.218,192.698 68.632 C 192.669 68.926,192.575 69.167,192.489 69.167 C 192.404 69.167,192.333 69.274,192.333 69.405 C 192.333 69.537,192.183 69.692,192.000 69.750 C 191.728 69.836,191.667 70.002,191.667 70.649 C 191.667 71.571,191.189 72.167,190.448 72.167 C 190.111 72.167,190.000 72.249,190.000 72.500 C 190.000 72.717,189.889 72.833,189.682 72.833 C 189.304 72.833,188.000 73.503,188.000 73.698 C 188.000 73.772,187.850 73.833,187.667 73.833 C 187.483 73.833,187.333 73.908,187.333 74.000 C 187.333 74.092,187.161 74.167,186.950 74.167 C 186.739 74.167,186.495 74.236,186.408 74.321 C 186.321 74.405,186.025 74.499,185.750 74.529 C 185.441 74.563,185.250 74.679,185.250 74.833 C 185.250 75.162,184.250 76.167,183.922 76.167 C 183.782 76.167,183.667 76.242,183.667 76.333 C 183.667 76.425,183.555 76.500,183.419 76.500 C 183.098 76.500,182.500 77.012,182.500 77.287 C 182.500 77.404,182.433 77.500,182.351 77.500 C 182.131 77.500,181.167 78.437,181.167 78.650 C 181.167 78.751,181.092 78.833,181.000 78.833 C 180.787 78.833,180.167 79.449,180.167 79.661 C 180.167 79.749,180.011 79.905,179.821 80.007 C 179.380 80.242,178.833 80.787,178.833 80.989 C 178.833 81.074,178.683 81.192,178.500 81.250 C 178.284 81.319,178.167 81.502,178.167 81.773 C 178.167 82.246,177.819 82.667,177.429 82.667 C 177.253 82.667,177.167 82.820,177.167 83.133 C 177.167 83.669,176.900 84.000,176.467 84.000 C 176.247 84.000,176.167 84.129,176.167 84.482 C 176.167 84.772,176.059 85.005,175.898 85.068 C 175.716 85.137,175.654 85.305,175.708 85.585 C 175.751 85.813,175.723 86.000,175.644 86.000 C 175.565 86.000,175.500 86.133,175.500 86.297 C 175.500 86.460,175.350 86.701,175.167 86.833 C 174.983 86.965,174.833 87.199,174.833 87.352 C 174.833 87.506,174.712 87.677,174.564 87.734 C 174.382 87.804,174.321 87.972,174.375 88.252 C 174.418 88.480,174.389 88.667,174.310 88.667 C 174.231 88.667,174.167 88.892,174.167 89.167 C 174.167 89.556,174.093 89.667,173.833 89.667 C 173.557 89.667,173.500 89.778,173.500 90.316 C 173.500 90.738,173.413 90.998,173.250 91.060 C 173.095 91.120,173.000 91.373,173.000 91.725 C 173.000 92.154,172.918 92.316,172.667 92.382 C 172.402 92.451,172.333 92.609,172.333 93.151 C 172.333 93.532,172.253 93.833,172.152 93.833 C 172.035 93.833,171.990 94.189,172.027 94.834 C 172.067 95.553,172.025 95.834,171.875 95.834 C 171.736 95.833,171.667 96.111,171.667 96.667 C 171.667 97.389,171.622 97.500,171.333 97.500 C 171.076 97.500,171.000 97.611,171.000 97.990 C 171.000 98.260,170.925 98.527,170.833 98.583 C 170.742 98.640,170.667 98.861,170.667 99.074 C 170.667 99.321,170.546 99.493,170.333 99.548 C 170.108 99.607,170.000 99.776,170.000 100.069 C 170.000 100.308,169.850 100.632,169.667 100.789 C 169.483 100.946,169.333 101.170,169.333 101.287 C 169.333 101.404,169.239 101.500,169.124 101.500 C 168.832 101.500,168.000 102.414,168.000 102.735 C 168.000 102.881,167.865 103.000,167.700 103.000 C 167.123 103.000,167.000 103.350,167.000 104.994 L 167.000 106.589 166.062 107.150 C 165.058 107.751,163.960 108.800,164.099 109.025 C 164.146 109.101,164.068 109.118,163.925 109.064 C 163.734 108.990,163.667 109.073,163.667 109.378 C 163.667 109.605,163.554 110.110,163.417 110.500 C 163.279 110.890,163.167 111.447,163.167 111.738 C 163.167 112.029,163.090 112.343,162.996 112.437 C 162.880 112.553,162.900 112.789,163.059 113.179 C 163.187 113.493,163.343 114.104,163.406 114.537 C 163.516 115.303,163.710 115.571,165.014 116.759 C 165.173 116.904,165.622 117.000,166.139 117.000 C 166.941 117.000,167.000 117.028,167.000 117.407 C 167.000 117.631,167.075 117.860,167.167 117.917 C 167.409 118.067,167.380 121.054,167.133 121.300 C 167.023 121.410,166.723 121.500,166.467 121.500 C 166.111 121.500,166.000 121.579,166.000 121.833 C 166.000 122.076,165.889 122.167,165.593 122.167 C 165.369 122.167,165.140 122.242,165.083 122.333 C 165.027 122.425,164.835 122.500,164.657 122.500 C 164.479 122.500,164.333 122.575,164.333 122.667 C 164.333 122.758,164.108 122.833,163.833 122.833 C 163.444 122.833,163.333 122.907,163.333 123.167 C 163.333 123.409,163.222 123.500,162.927 123.500 C 162.703 123.500,162.473 123.575,162.417 123.667 C 162.360 123.758,162.093 123.833,161.823 123.833 C 161.489 123.833,161.333 123.917,161.333 124.095 C 161.333 124.462,160.921 124.833,160.514 124.833 C 160.115 124.833,159.500 125.311,159.500 125.620 C 159.500 125.738,159.428 125.833,159.340 125.833 C 159.010 125.833,157.892 127.115,157.495 127.948 C 157.269 128.424,156.952 128.848,156.792 128.891 C 156.594 128.944,156.500 129.134,156.500 129.484 C 156.500 129.768,156.425 130.000,156.333 130.000 C 156.242 130.000,156.167 130.225,156.167 130.500 C 156.167 130.889,156.093 131.000,155.833 131.000 C 155.556 131.000,155.500 131.111,155.500 131.667 C 155.500 132.033,155.425 132.333,155.333 132.333 C 155.230 132.333,155.167 133.276,155.167 134.827 L 155.167 137.320 155.833 137.980 L 156.500 138.641 156.500 146.987 C 156.500 152.440,156.442 155.333,156.333 155.333 C 156.242 155.333,156.167 155.483,156.167 155.667 C 156.167 155.889,156.056 156.000,155.833 156.000 C 155.611 156.000,155.500 156.111,155.500 156.333 C 155.500 156.517,155.425 156.667,155.333 156.667 C 155.238 156.667,155.167 157.167,155.167 157.833 C 155.167 158.500,155.095 159.000,155.000 159.000 C 154.908 159.000,154.833 159.135,154.833 159.300 C 154.833 160.027,156.712 159.998,106.842 160.037 C 80.666 160.057,60.900 160.115,62.917 160.167 C 64.933 160.218,59.140 160.276,50.042 160.297 L 33.500 160.333 33.500 161.917 L 33.500 163.500 50.042 163.540 C 59.140 163.562,63.561 163.600,59.866 163.625 C 55.494 163.655,53.185 163.728,53.251 163.835 C 53.318 163.943,69.983 164.000,101.593 164.000 L 149.833 164.000 149.833 164.341 C 149.833 164.680,149.857 164.681,159.977 164.632 C 168.582 164.591,170.042 164.617,169.602 164.807 C 169.317 164.930,167.546 165.652,165.667 166.412 C 163.787 167.171,161.800 167.978,161.250 168.205 C 160.063 168.694,159.613 168.878,159.500 168.917 C 159.454 168.933,158.983 169.146,158.454 169.390 C 157.924 169.634,157.431 169.833,157.359 169.833 C 156.521 169.833,156.127 172.552,156.875 173.176 C 157.081 173.348,157.441 173.491,157.675 173.494 C 157.909 173.498,159.634 173.754,161.509 174.066 C 163.383 174.377,165.174 174.666,165.489 174.708 C 166.017 174.779,166.475 174.642,168.417 173.837 C 168.692 173.723,169.254 173.493,169.667 173.327 C 170.444 173.013,173.628 171.721,175.083 171.129 C 175.542 170.942,176.217 170.659,176.583 170.500 C 176.950 170.342,177.700 170.042,178.250 169.835 C 179.209 169.473,179.981 169.145,181.713 168.361 C 182.151 168.162,182.589 168.000,182.688 168.000 C 182.786 168.000,183.103 167.895,183.391 167.767 C 184.357 167.338,186.408 166.468,187.208 166.149 C 189.988 165.040,191.235 164.538,192.333 164.083 C 193.404 163.640,194.743 163.097,195.917 162.628 C 196.375 162.445,197.162 162.125,197.667 161.917 C 198.171 161.708,198.958 161.386,199.417 161.202 C 199.875 161.017,200.709 160.671,201.271 160.433 C 201.832 160.195,202.598 160.000,202.973 160.000 C 203.347 160.000,203.750 159.897,203.867 159.772 C 204.047 159.579,204.184 159.590,204.748 159.844 C 205.116 160.010,205.867 160.309,206.417 160.509 C 206.967 160.710,207.754 161.007,208.167 161.169 C 209.261 161.601,210.837 162.206,212.917 162.993 C 214.869 163.731,216.446 164.340,217.667 164.827 C 218.079 164.992,218.867 165.291,219.417 165.492 C 219.967 165.694,220.754 165.995,221.167 166.163 C 221.579 166.331,222.554 166.703,223.333 166.991 C 224.112 167.280,224.900 167.585,225.083 167.670 C 225.267 167.755,225.717 167.932,226.083 168.063 C 226.944 168.370,228.669 169.030,229.833 169.496 C 230.338 169.698,231.050 169.961,231.417 170.080 C 231.783 170.198,232.346 170.411,232.667 170.551 C 232.987 170.692,233.662 170.957,234.167 171.141 C 234.671 171.324,235.948 171.818,237.006 172.237 C 238.063 172.657,238.979 173.000,239.042 173.000 C 239.105 173.000,239.567 173.188,240.068 173.417 L 240.979 173.833 247.406 173.833 L 253.833 173.833 253.833 171.913 C 253.833 169.734,254.046 170.040,252.000 169.278 C 251.404 169.056,250.129 168.558,249.167 168.173 C 248.204 167.787,247.068 167.408,246.641 167.332 C 246.214 167.255,245.637 167.074,245.358 166.929 C 245.078 166.785,244.744 166.667,244.614 166.667 C 244.484 166.667,244.199 166.528,243.981 166.357 C 243.762 166.187,243.295 165.995,242.943 165.930 C 242.172 165.788,241.500 165.498,241.500 165.307 C 241.500 165.230,241.281 165.167,241.014 165.167 C 240.747 165.167,240.497 165.074,240.459 164.961 C 240.421 164.848,239.946 164.671,239.404 164.567 C 238.592 164.413,239.756 164.368,245.958 164.315 C 250.106 164.279,253.500 164.305,253.500 164.372 C 253.500 164.440,251.381 164.516,248.792 164.542 L 244.083 164.589 248.807 164.628 C 253.408 164.666,253.533 164.658,253.618 164.333 C 253.705 164.001,253.846 164.000,302.260 164.000 C 333.870 164.000,350.849 163.943,350.915 163.836 C 350.980 163.731,349.535 163.655,346.883 163.625 C 344.610 163.599,348.019 163.560,354.458 163.539 L 366.167 163.500 366.167 161.917 L 366.167 160.333 355.240 160.333 C 347.998 160.333,344.348 160.277,344.417 160.167 C 344.485 160.056,329.335 160.000,299.093 160.000 C 268.920 160.000,253.667 159.944,253.667 159.833 C 253.667 159.742,253.535 159.667,253.375 159.666 C 253.138 159.666,253.009 159.314,252.685 157.791 C 252.466 156.760,252.146 155.618,251.973 155.253 C 251.403 154.047,251.562 137.396,252.145 137.202 C 252.598 137.051,252.295 131.333,251.835 131.333 C 251.753 131.333,251.439 130.921,251.137 130.417 C 250.836 129.913,250.539 129.500,250.478 129.500 C 250.134 129.500,249.333 127.837,249.333 127.123 C 249.333 126.367,248.822 125.833,248.098 125.833 C 247.996 125.833,247.727 125.608,247.500 125.333 C 247.273 125.058,247.008 124.833,246.912 124.833 C 246.815 124.833,246.402 124.489,245.993 124.068 C 244.397 122.423,240.914 120.294,239.424 120.052 L 238.833 119.956 238.833 118.992 C 238.833 118.461,238.782 117.890,238.719 117.722 C 238.620 117.460,238.642 117.447,238.869 117.632 C 239.086 117.808,239.150 117.808,239.221 117.632 C 239.268 117.514,239.313 117.591,239.320 117.804 C 239.338 118.327,239.896 118.223,239.973 117.683 C 240.016 117.383,239.967 117.310,239.773 117.385 C 239.591 117.455,239.546 117.408,239.617 117.222 C 239.703 117.000,239.662 116.991,239.344 117.161 C 239.139 117.271,238.922 117.306,238.861 117.241 C 238.800 117.175,238.844 117.088,238.958 117.047 C 239.073 117.006,239.167 116.915,239.167 116.845 C 239.167 116.546,241.051 114.697,241.270 114.781 C 241.399 114.830,241.613 114.781,241.745 114.670 C 241.878 114.560,242.395 114.458,242.895 114.444 C 243.394 114.429,243.793 114.379,243.781 114.333 C 243.769 114.287,243.896 114.045,244.064 113.794 C 244.296 113.447,244.343 113.168,244.263 112.627 C 244.204 112.236,244.086 111.317,244.001 110.583 C 243.798 108.843,243.662 108.183,243.481 108.071 C 243.400 108.021,243.333 107.804,243.333 107.589 C 243.333 107.374,243.137 106.819,242.897 106.357 C 242.657 105.894,242.421 105.159,242.372 104.724 C 242.318 104.247,242.060 103.564,241.725 103.008 C 241.418 102.499,241.167 101.882,241.167 101.635 C 241.167 101.388,241.092 101.140,241.000 101.083 C 240.908 101.027,240.833 100.768,240.833 100.508 C 240.833 100.218,240.649 99.838,240.356 99.525 C 240.094 99.244,239.707 98.542,239.497 97.965 C 239.287 97.389,239.052 96.845,238.974 96.758 C 238.897 96.671,238.833 96.467,238.833 96.305 C 238.833 96.142,238.649 95.592,238.423 95.082 C 238.197 94.571,237.962 93.882,237.899 93.549 C 237.837 93.216,237.600 92.736,237.374 92.481 C 236.885 91.932,236.652 91.494,236.344 90.544 C 236.218 90.156,235.977 89.713,235.807 89.560 C 235.638 89.407,235.500 89.212,235.500 89.128 C 235.500 89.043,235.200 88.677,234.833 88.314 C 234.441 87.926,234.167 87.496,234.167 87.271 C 234.167 87.013,233.965 86.759,233.542 86.486 C 233.107 86.205,232.900 85.941,232.863 85.616 C 232.828 85.307,232.676 85.099,232.415 84.999 C 232.198 84.917,231.929 84.678,231.817 84.469 C 231.705 84.261,231.438 83.952,231.224 83.783 C 231.009 83.614,230.833 83.367,230.833 83.234 C 230.833 83.101,230.421 82.587,229.917 82.091 C 229.412 81.594,229.000 81.071,229.000 80.928 C 229.000 80.784,228.897 80.667,228.770 80.667 C 228.644 80.667,227.556 79.692,226.352 78.500 C 225.149 77.308,224.109 76.333,224.041 76.333 C 223.972 76.333,223.470 75.921,222.924 75.417 C 222.378 74.912,221.901 74.500,221.863 74.500 C 221.826 74.500,221.260 74.170,220.606 73.767 C 219.952 73.365,219.229 72.979,219.000 72.911 C 218.771 72.843,218.404 72.648,218.186 72.477 C 217.967 72.306,217.648 72.167,217.478 72.167 C 217.307 72.167,217.167 72.092,217.167 72.000 C 217.167 71.908,217.018 71.833,216.837 71.833 C 216.612 71.833,216.474 71.687,216.405 71.375 C 215.957 69.341,214.856 67.853,213.172 67.002 C 212.444 66.635,212.167 66.403,212.167 66.160 C 212.167 65.960,212.006 65.764,211.768 65.673 C 210.962 65.367,210.833 64.743,210.833 61.147 L 210.833 57.844 211.417 57.261 C 211.737 56.940,212.000 56.600,212.000 56.506 C 212.000 56.411,212.114 56.333,212.253 56.333 C 212.437 56.333,212.479 56.224,212.406 55.933 C 212.340 55.669,212.390 55.484,212.553 55.391 C 212.702 55.306,212.850 54.857,212.923 54.268 C 213.006 53.596,212.989 53.320,212.869 53.395 C 212.766 53.458,212.647 53.278,212.581 52.960 C 212.503 52.585,212.094 52.054,211.262 51.248 C 210.279 50.295,210.037 49.957,209.949 49.415 C 209.889 49.050,209.727 48.668,209.587 48.566 C 209.448 48.463,209.333 48.180,209.333 47.936 C 209.333 47.608,209.217 47.447,208.889 47.323 C 207.993 46.982,207.833 46.601,207.833 44.803 C 207.833 43.493,207.782 43.137,207.583 43.060 C 207.446 43.008,207.333 42.822,207.333 42.649 C 207.333 42.475,207.254 42.333,207.157 42.333 C 207.060 42.333,207.027 42.258,207.084 42.165 C 207.258 41.884,206.996 41.333,206.689 41.333 C 206.470 41.333,206.400 41.192,206.400 40.750 C 206.400 40.429,206.460 40.167,206.533 40.167 C 206.607 40.167,206.667 40.026,206.667 39.854 C 206.667 39.663,206.862 39.460,207.167 39.333 C 207.442 39.219,207.669 39.004,207.672 38.855 C 207.674 38.705,207.697 38.068,207.723 37.438 C 207.755 36.631,207.701 36.224,207.537 36.061 C 207.408 35.932,207.306 35.498,207.306 35.081 C 207.306 34.519,207.242 34.333,207.049 34.333 C 206.839 34.333,206.830 34.288,207.003 34.080 C 207.174 33.874,207.161 33.770,206.929 33.514 C 206.727 33.290,206.664 32.994,206.710 32.475 L 206.775 31.750 206.804 32.552 C 206.837 33.458,207.167 33.489,207.167 32.585 C 207.167 32.055,206.822 31.500,206.493 31.500 C 206.411 31.500,206.381 31.402,206.427 31.283 C 206.537 30.997,205.674 29.884,205.250 29.765 C 204.738 29.621,203.129 29.669,202.701 29.841 M227.015 78.399 C 226.703 78.774,227.262 79.262,227.607 78.917 C 227.829 78.694,227.829 78.639,227.607 78.417 C 227.300 78.109,227.256 78.108,227.015 78.399 M246.118 112.604 C 245.911 112.812,245.991 113.294,246.250 113.394 C 246.659 113.551,247.022 113.320,246.967 112.937 C 246.917 112.587,246.356 112.366,246.118 112.604 M196.000 154.403 C 196.000 154.441,195.644 154.604,195.208 154.765 C 194.144 155.158,190.828 156.427,189.555 156.928 C 188.471 157.355,187.878 157.467,188.333 157.159 C 188.526 157.029,188.488 157.008,188.167 157.070 C 187.938 157.114,187.225 157.199,186.584 157.259 C 185.827 157.330,185.255 157.485,184.950 157.703 C 184.555 157.983,184.289 158.025,183.282 157.963 C 182.623 157.923,181.371 157.988,180.500 158.108 C 179.438 158.255,176.929 158.328,172.885 158.330 C 169.047 158.332,166.816 158.394,166.750 158.500 C 166.693 158.592,166.168 158.667,165.583 158.667 C 164.998 158.667,164.473 158.742,164.417 158.833 C 164.360 158.925,163.924 158.990,163.448 158.977 C 162.973 158.965,162.755 158.922,162.965 158.882 C 163.174 158.841,163.436 158.664,163.546 158.488 C 163.657 158.311,163.874 158.167,164.030 158.167 C 164.186 158.167,164.360 158.092,164.417 158.000 C 164.473 157.908,164.698 157.833,164.917 157.833 C 165.135 157.833,165.360 157.758,165.417 157.667 C 165.473 157.575,165.815 157.500,166.177 157.500 C 166.722 157.500,166.833 157.444,166.833 157.167 C 166.833 156.898,166.944 156.833,167.407 156.833 C 167.722 156.833,168.027 156.758,168.083 156.667 C 168.140 156.575,168.857 156.500,169.677 156.500 C 170.559 156.500,171.167 156.432,171.167 156.333 C 171.167 156.242,171.314 156.167,171.495 156.167 C 171.675 156.167,172.090 156.017,172.417 155.833 C 172.743 155.650,173.195 155.500,173.422 155.500 C 173.648 155.500,173.833 155.425,173.833 155.333 C 173.833 155.241,174.278 155.167,174.833 155.167 C 175.389 155.167,175.833 155.093,175.833 155.000 C 175.833 154.908,176.097 154.833,176.419 154.833 C 176.741 154.833,177.154 154.740,177.336 154.627 C 177.601 154.461,177.736 154.463,178.020 154.640 C 178.273 154.798,178.424 154.810,178.553 154.680 C 178.825 154.409,189.198 154.431,189.471 154.704 C 189.632 154.865,189.744 154.865,190.003 154.703 C 190.229 154.562,191.118 154.503,192.845 154.515 C 194.227 154.524,195.402 154.487,195.456 154.432 C 195.569 154.320,196.000 154.297,196.000 154.403 M222.292 154.652 C 226.313 154.430,235.490 154.756,236.398 155.153 C 236.775 155.318,237.288 155.536,237.538 155.638 C 237.854 155.766,237.962 155.905,237.892 156.088 C 237.823 156.268,237.905 156.383,238.145 156.446 C 238.340 156.497,238.500 156.605,238.500 156.686 C 238.500 156.767,238.706 156.828,238.958 156.822 C 239.408 156.811,239.410 156.808,239.042 156.630 C 238.835 156.530,238.667 156.386,238.667 156.308 C 238.667 156.113,239.432 156.130,239.836 156.333 C 240.018 156.425,240.316 156.575,240.498 156.667 C 240.680 156.758,240.976 156.833,241.156 156.833 C 241.336 156.833,241.555 156.962,241.643 157.119 C 241.743 157.297,242.044 157.420,242.441 157.445 C 242.792 157.468,243.105 157.564,243.137 157.660 C 243.168 157.755,243.488 157.833,243.847 157.833 C 244.206 157.833,244.500 157.908,244.500 158.000 C 244.500 158.092,244.669 158.169,244.875 158.172 C 245.081 158.175,245.396 158.287,245.574 158.422 C 245.873 158.648,245.840 158.667,245.125 158.667 C 244.700 158.667,244.307 158.742,244.250 158.833 C 244.118 159.047,237.667 159.061,237.667 158.847 C 237.667 158.763,237.760 158.657,237.875 158.610 C 237.990 158.564,237.921 158.520,237.722 158.513 C 237.524 158.506,237.333 158.585,237.298 158.688 C 237.252 158.827,237.010 158.827,236.360 158.688 C 235.878 158.585,235.229 158.500,234.918 158.500 C 234.607 158.500,234.307 158.425,234.250 158.333 C 234.095 158.082,233.500 158.133,233.500 158.397 C 233.500 158.648,231.814 158.944,231.497 158.748 C 231.401 158.689,230.874 158.642,230.327 158.645 C 229.781 158.647,229.333 158.578,229.333 158.491 C 229.333 158.399,228.309 158.333,226.865 158.333 C 224.627 158.333,224.363 158.302,224.038 158.000 C 223.750 157.731,223.447 157.666,222.465 157.663 C 221.270 157.659,220.573 157.482,218.500 156.660 C 217.005 156.066,215.475 155.486,214.543 155.158 C 212.709 154.514,212.870 154.482,217.500 154.580 C 219.929 154.631,222.085 154.663,222.292 154.652 " stroke="none" fill="#fbfbfb" fill-rule="evenodd"></path><path id="path1" d="M241.836 102.208 C 241.838 102.512,241.869 102.535,242.000 102.333 C 242.209 102.010,242.209 101.833,242.000 101.833 C 241.908 101.833,241.834 102.002,241.836 102.208 M194.333 154.833 C 193.569 155.252,193.771 155.254,194.690 154.837 C 195.090 154.656,195.304 154.509,195.167 154.511 C 195.029 154.512,194.654 154.658,194.333 154.833 M191.665 155.819 C 190.860 156.126,189.914 156.642,190.583 156.409 C 191.517 156.084,192.552 155.670,192.632 155.590 C 192.783 155.440,192.455 155.517,191.665 155.819 M33.396 161.917 C 33.396 162.925,33.424 163.316,33.457 162.786 C 33.490 162.255,33.490 161.430,33.456 160.952 C 33.422 160.474,33.395 160.908,33.396 161.917 M168.875 164.839 C 168.317 165.063,168.421 165.177,169.000 164.975 C 169.275 164.879,169.500 164.771,169.500 164.734 C 169.500 164.635,169.297 164.669,168.875 164.839 M167.375 165.431 C 167.077 165.561,166.833 165.701,166.833 165.742 C 166.833 165.865,167.827 165.479,167.927 165.317 C 168.038 165.137,168.054 165.134,167.375 165.431 M165.851 166.014 C 165.631 166.102,165.489 166.211,165.534 166.256 C 165.579 166.301,165.871 166.228,166.183 166.092 C 166.800 165.824,166.501 165.754,165.851 166.014 M163.875 166.839 C 163.298 167.070,163.431 167.173,164.042 166.967 C 164.340 166.866,164.615 166.757,164.653 166.725 C 164.788 166.611,164.244 166.690,163.875 166.839 M162.264 167.502 C 161.813 167.678,161.366 167.901,161.269 167.998 C 161.112 168.155,163.152 167.395,163.319 167.233 C 163.470 167.089,163.045 167.197,162.264 167.502 M160.375 168.264 C 160.077 168.394,159.833 168.534,159.833 168.575 C 159.833 168.698,160.827 168.312,160.927 168.150 C 161.038 167.971,161.054 167.967,160.375 168.264 " stroke="none" fill="#0a0a0a" fill-rule="evenodd"></path><path id="path2" d="M41.708 160.292 C 46.269 160.316,53.731 160.316,58.292 160.292 C 62.852 160.267,59.121 160.247,50.000 160.247 C 40.879 160.247,37.148 160.267,41.708 160.292 M349.804 160.292 C 352.858 160.317,357.808 160.317,360.804 160.292 C 363.799 160.266,361.300 160.245,355.250 160.245 C 349.200 160.245,346.749 160.266,349.804 160.292 M344.792 163.625 C 345.915 163.653,347.752 163.653,348.875 163.625 C 349.998 163.596,349.079 163.572,346.833 163.572 C 344.587 163.572,343.669 163.596,344.792 163.625 " stroke="none" fill="#9c9c9c" fill-rule="evenodd"></path><path id="path3" d="M366.201 161.790 L 366.167 163.497 358.458 163.542 L 350.750 163.587 358.464 163.627 C 364.742 163.659,366.193 163.626,366.262 163.446 C 366.308 163.324,366.322 162.518,366.291 161.654 L 366.236 160.083 366.201 161.790 M41.708 163.625 C 46.269 163.650,53.731 163.650,58.292 163.625 C 62.852 163.600,59.121 163.580,50.000 163.580 C 40.879 163.580,37.148 163.600,41.708 163.625 M242.386 164.458 C 244.478 164.485,247.853 164.485,249.886 164.458 C 251.920 164.432,250.208 164.410,246.083 164.410 C 241.958 164.410,240.295 164.432,242.386 164.458 " stroke="none" fill="#848484" fill-rule="evenodd"></path><path id="path4" d="" stroke="none" fill="#8c8c8c" fill-rule="evenodd"></path></g></svg>